<?xml version="1.0" encoding="UTF-8"?>
<svg id="Camada_1" xmlns="http://www.w3.org/2000/svg" version="1.1" viewBox="0 0 1080 1080">
  <!-- Generator: Adobe Illustrator 29.1.0, SVG Export Plug-In . SVG Version: 2.1.0 Build 142)  -->
  <defs>
    <style>
      .st0 {
        fill: #1c2726;
        stroke: #1d1d1b;
        stroke-miterlimit: 10;
      }

      .st1 {
        fill: #49e190;
      }

      .st2 {
        fill: #fff;
      }
    </style>
  </defs>
  <rect class="st0" width="1080" height="1080"/>
  <path class="st2" d="M483.7,489.6h30.5v83.4c0,9.3,1.2,16.1,3.5,20.4,3.6,7.6,11.5,11.4,23.7,11.4s20-3.9,23.6-11.4c2.3-4.3,3.5-11.1,3.5-20.4v-83.4h30.5v83.4c0,14.4-2.4,25.7-7.1,33.7-8.8,14.7-25.6,22.1-50.5,22.1s-41.7-7.4-50.7-22.1c-4.7-8-7.1-19.3-7.1-33.7v-83.4Z"/>
  <path class="st2" d="M619.6,490.2h27.3v73.2l35-38h34.7l-38.1,37.4,39.6,62.5h-33.8l-25.8-42.8-11.5,11.3v31.6h-27.3v-135.2Z"/>
  <path class="st2" d="M791.4,598.7c4.3-5.4,6.5-13.3,6.5-23.3s-2.2-17.8-6.5-23.3c-4.3-5.4-10.6-8.1-18.7-8.1s-14.4,2.7-18.9,8.1c-4.3,5.4-6.6,13.1-6.6,23.3s2.2,17.8,6.6,23.3c4.5,5.4,10.7,8.1,18.9,8.1s14.4-2.7,18.7-8.1ZM813.7,613.1c-8.9,10.4-22.6,15.7-40.9,15.7s-31.9-5.3-40.9-15.7c-8.9-10.4-13.5-23-13.5-37.7s4.5-27,13.5-37.7c8.9-10.6,22.6-15.8,40.9-15.8s31.9,5.3,40.9,15.8c8.9,10.6,13.5,23.1,13.5,37.7-.1,14.7-4.6,27.3-13.5,37.7Z"/>
  <path class="st2" d="M900.2,522.7c.3,0,1.2.1,2.4.1v26.8c-1.7-.1-3.3-.3-4.7-.4-1.3,0-2.4-.1-3.3-.1-11.2,0-18.7,3.4-22.6,10.3-2.2,3.9-3.2,9.9-3.2,17.8v48h-28.1v-100.2h26.5v17.6c4.3-6.7,8.1-11.3,11.2-13.7,5.2-4.1,11.9-6.1,20.3-6.1.6-.1,1-.1,1.4,0Z"/>
  <path class="st1" d="M369.8,554.6c0,16.6-6.5,32.1-18.1,43.8-11.7,11.7-27.1,18.1-43.5,18.1-16.4-.1-31.8-6.6-43.5-18.1-11.7-11.7-18.1-27.3-18.1-43.8v-65.1c-.1,0,43.5,0,43.5,0,0,0-.4,66.2-.1,69.5.3,3.7,2.6,8.7,6.3,11.7,3.3,2.6,7.5,4,11.9,4s8.5-1.3,11.9-4c3.7-3,6-8,6.3-11.7.3-3.3-.1-69.5-.1-69.5h43.6v65.1ZM308.2,410.2c-72.2,0-130.8,58.1-130.8,129.8s58.6,129.8,130.8,129.8,130.8-58.1,130.8-129.8-58.6-129.8-130.8-129.8Z"/>
  <path class="st0" d="M483.7,1604.3h30.5v83.4c0,9.3,1.2,16.1,3.5,20.4,3.6,7.6,11.5,11.4,23.7,11.4s20-3.9,23.6-11.4c2.3-4.3,3.5-11.1,3.5-20.4v-83.4h30.5v83.4c0,14.4-2.4,25.7-7.1,33.7-8.8,14.7-25.6,22.1-50.5,22.1s-41.7-7.4-50.7-22.1c-4.7-8-7.1-19.3-7.1-33.7v-83.4Z"/>
  <path class="st0" d="M619.6,1604.9h27.3v73.2l35-38h34.7l-38.1,37.4,39.6,62.5h-33.8l-25.8-42.8-11.5,11.3v31.6h-27.3v-135.2Z"/>
  <path class="st0" d="M791.4,1713.4c4.3-5.4,6.5-13.3,6.5-23.3s-2.2-17.8-6.5-23.3c-4.3-5.4-10.6-8.1-18.7-8.1s-14.4,2.7-18.9,8.1c-4.3,5.4-6.6,13.1-6.6,23.3s2.2,17.8,6.6,23.3c4.5,5.4,10.7,8.1,18.9,8.1s14.4-2.7,18.7-8.1ZM813.7,1727.8c-8.9,10.4-22.6,15.7-40.9,15.7s-31.9-5.3-40.9-15.7c-8.9-10.4-13.5-23-13.5-37.7s4.5-27,13.5-37.7c8.9-10.6,22.6-15.8,40.9-15.8s31.9,5.3,40.9,15.8c8.9,10.6,13.5,23.1,13.5,37.7-.1,14.7-4.6,27.3-13.5,37.7Z"/>
  <path class="st0" d="M900.2,1637.5c.3,0,1.2.1,2.4.1v26.8c-1.7-.1-3.3-.3-4.7-.4-1.3,0-2.4-.1-3.3-.1-11.2,0-18.7,3.4-22.6,10.3-2.2,3.9-3.2,9.9-3.2,17.8v48h-28.1v-100.2h26.5v17.6c4.3-6.7,8.1-11.3,11.2-13.7,5.2-4.1,11.9-6.1,20.3-6.1.6-.1,1-.1,1.4,0Z"/>
  <path class="st1" d="M369.8,1669.3c0,16.6-6.5,32.1-18.1,43.8-11.7,11.7-27.1,18.1-43.5,18.1-16.4-.1-31.8-6.6-43.5-18.1-11.7-11.7-18.1-27.3-18.1-43.8v-65.1c-.1,0,43.5,0,43.5,0,0,0-.4,66.2-.1,69.5.3,3.7,2.6,8.7,6.3,11.7,3.3,2.6,7.5,4,11.9,4s8.5-1.3,11.9-4c3.7-3,6-8,6.3-11.7.3-3.3-.1-69.5-.1-69.5h43.6v65.1ZM308.2,1524.9c-72.2,0-130.8,58.1-130.8,129.8s58.6,129.8,130.8,129.8,130.8-58.1,130.8-129.8-58.6-129.8-130.8-129.8Z"/>
  <g>
    <path class="st1" d="M-647.9,1604.3h30.5v83.4c0,9.3,1.2,16.1,3.5,20.4,3.6,7.6,11.5,11.4,23.7,11.4s20-3.9,23.6-11.4c2.3-4.3,3.5-11.1,3.5-20.4v-83.4h30.5v83.4c0,14.4-2.4,25.7-7.1,33.7-8.8,14.7-25.6,22.1-50.5,22.1s-41.7-7.4-50.7-22.1c-4.7-8-7.1-19.3-7.1-33.7v-83.4Z"/>
    <path class="st1" d="M-512.1,1604.9h27.3v73.2l35-38h34.7l-38.1,37.4,39.6,62.5h-33.8l-25.8-42.8-11.5,11.3v31.6h-27.3v-135.2Z"/>
    <path class="st1" d="M-340.3,1713.4c4.3-5.4,6.5-13.3,6.5-23.3s-2.2-17.8-6.5-23.3c-4.3-5.4-10.6-8.1-18.7-8.1s-14.4,2.7-18.9,8.1c-4.3,5.4-6.6,13.1-6.6,23.3s2.2,17.8,6.6,23.3c4.5,5.4,10.7,8.1,18.9,8.1s14.4-2.7,18.7-8.1ZM-318,1727.8c-8.9,10.4-22.6,15.7-40.9,15.7s-31.9-5.3-40.9-15.7c-8.9-10.4-13.5-23-13.5-37.7s4.5-27,13.5-37.7c8.9-10.6,22.6-15.8,40.9-15.8s31.9,5.3,40.9,15.8c8.9,10.6,13.5,23.1,13.5,37.7-.1,14.7-4.6,27.3-13.5,37.7Z"/>
    <path class="st1" d="M-231.5,1637.5c.3,0,1.2.1,2.4.1v26.8c-1.7-.1-3.3-.3-4.7-.4-1.3,0-2.4-.1-3.3-.1-11.2,0-18.7,3.4-22.6,10.3-2.2,3.9-3.2,9.9-3.2,17.8v48h-28.1v-100.2h26.5v17.6c4.3-6.7,8.1-11.3,11.2-13.7,5.2-4.1,11.9-6.1,20.3-6.1.6-.1,1-.1,1.4,0Z"/>
    <path class="st1" d="M-761.9,1669.3c0,16.6-6.5,32.1-18.1,43.8-11.7,11.7-27.1,18.1-43.5,18.1-16.4-.1-31.8-6.6-43.5-18.1-11.7-11.7-18.1-27.3-18.1-43.8v-65.1c-.1,0,43.5,0,43.5,0,0,0-.4,66.2-.1,69.5.3,3.7,2.6,8.7,6.3,11.7,3.3,2.6,7.5,4,11.9,4s8.5-1.3,11.9-4c3.7-3,6-8,6.3-11.7.3-3.3-.1-69.5-.1-69.5h43.6v65.1ZM-823.5,1524.9c-72.2,0-130.8,58.1-130.8,129.8s58.6,129.8,130.8,129.8,130.8-58.1,130.8-129.8-58.6-129.8-130.8-129.8Z"/>
  </g>
  <rect class="st0" x="-1131.7" y="0" width="1080" height="1080"/>
  <g>
    <path class="st1" d="M-647.9,489.6h30.5v83.4c0,9.3,1.2,16.1,3.5,20.4,3.6,7.6,11.5,11.4,23.7,11.4s20-3.9,23.6-11.4c2.3-4.3,3.5-11.1,3.5-20.4v-83.4h30.5v83.4c0,14.4-2.4,25.7-7.1,33.7-8.8,14.7-25.6,22.1-50.5,22.1s-41.7-7.4-50.7-22.1c-4.7-8-7.1-19.3-7.1-33.7v-83.4Z"/>
    <path class="st1" d="M-512.1,490.2h27.3v73.2l35-38h34.7l-38.1,37.4,39.6,62.5h-33.8l-25.8-42.8-11.5,11.3v31.6h-27.3v-135.2Z"/>
    <path class="st1" d="M-340.3,598.7c4.3-5.4,6.5-13.3,6.5-23.3s-2.2-17.8-6.5-23.3c-4.3-5.4-10.6-8.1-18.7-8.1s-14.4,2.7-18.9,8.1c-4.3,5.4-6.6,13.1-6.6,23.3s2.2,17.8,6.6,23.3c4.5,5.4,10.7,8.1,18.9,8.1s14.4-2.7,18.7-8.1ZM-318,613.1c-8.9,10.4-22.6,15.7-40.9,15.7s-31.9-5.3-40.9-15.7c-8.9-10.4-13.5-23-13.5-37.7s4.5-27,13.5-37.7c8.9-10.6,22.6-15.8,40.9-15.8s31.9,5.3,40.9,15.8c8.9,10.6,13.5,23.1,13.5,37.7-.1,14.7-4.6,27.3-13.5,37.7Z"/>
    <path class="st1" d="M-231.5,522.7c.3,0,1.2.1,2.4.1v26.8c-1.7-.1-3.3-.3-4.7-.4-1.3,0-2.4-.1-3.3-.1-11.2,0-18.7,3.4-22.6,10.3-2.2,3.9-3.2,9.9-3.2,17.8v48h-28.1v-100.2h26.5v17.6c4.3-6.7,8.1-11.3,11.2-13.7,5.2-4.1,11.9-6.1,20.3-6.1.6-.1,1-.1,1.4,0Z"/>
    <path class="st1" d="M-761.9,554.6c0,16.6-6.5,32.1-18.1,43.8-11.7,11.7-27.1,18.1-43.5,18.1-16.4-.1-31.8-6.6-43.5-18.1-11.7-11.7-18.1-27.3-18.1-43.8v-65.1c-.1,0,43.5,0,43.5,0,0,0-.4,66.2-.1,69.5.3,3.7,2.6,8.7,6.3,11.7,3.3,2.6,7.5,4,11.9,4s8.5-1.3,11.9-4c3.7-3,6-8,6.3-11.7.3-3.3-.1-69.5-.1-69.5h43.6v65.1ZM-823.5,410.2c-72.2,0-130.8,58.1-130.8,129.8s58.6,129.8,130.8,129.8,130.8-58.1,130.8-129.8-58.6-129.8-130.8-129.8Z"/>
  </g>
</svg>